PathFileType	4	(X/Y/Z)	HSS_squat4.trc
DataRate	CameraRate	NumFrames	NumMarkers	Units	OrigDataRate	OrigDataStartFrame	OrigNumFrames
120.0	120.0	4	44	mm	120.0	1	973
Frame#	Time		R.Shoulder		Offset		L.Shoulder		R.Elbow		R.Wrist.Radial		R.Wrist		R.Hand		L.Elbow		L.Wrist.Radial		L.Wrist		L.Hand		R.Hip		V.Sacral		L.PSIS		L.Hip		R.Thigh.Upper		R.Thigh.Front		R.Thigh.Rear		X.Shell.Lower.Thigh.Right		R.Knee.Lateral		R.Shank.Upper		R.Shank.Front		R.Shank.Rear		X.Shell.Lower.Shank.Right		R.Ankle.Lateral		R.Heel		R.Toe		L.Thigh.Upper		L.Thigh.Front		L.Thigh.Rear		X.Shell.Lower.Thigh.Left		L.Knee.Lateral		L.Shank.Upper		L.Shank.Front		L.Shank.Rear		X.Shell.Lower.Shank.Left		L.Ankle.Lateral		L.Heel		L.Toe		R.Troc		L.Troc		R.PSIS		L.ASIS		R.ASIS
			X1	Y1	Z1	X2	Y2	Z2	X3	Y3	Z3	X4	Y4	Z4	X5	Y5	Z5	X6	Y6	Z6	X7	Y7	Z7	X8	Y8	Z8	X9	Y9	Z9	X10	Y10	Z10	X11	Y11	Z11	X12	Y12	Z12	X13	Y13	Z13	X14	Y14	Z14	X15	Y15	Z15	X16	Y16	Z16	X17	Y17	Z17	X18	Y18	Z18	X19	Y19	Z19	X20	Y20	Z20	X21	Y21	Z21	X22	Y22	Z22	X23	Y23	Z23	X24	Y24	Z24	X25	Y25	Z25	X26	Y26	Z26	X27	Y27	Z27	X28	Y28	Z28	X29	Y29	Z29	X30	Y30	Z30	X31	Y31	Z31	X32	Y32	Z32	X33	Y33	Z33	X34	Y34	Z34	X35	Y35	Z35	X36	Y36	Z36	X37	Y37	Z37	X38	Y38	Z38	X39	Y39	Z39	X40	Y40	Z40	X41	Y41	Z41	X42	Y42	Z42	X43	Y43	Z43	X44	Y44	Z44

1	0.00000	146.07271	1470.38672	-54.23780	-133.41307	1349.07898	27.64277	-196.82275	1480.66162	-57.79686	301.95062	1318.89258	-344.57907	74.06158	1379.98315	-478.63248	116.54095	1423.26318	-518.95959	31.96475	1425.89417	-548.48712	-357.79034	1347.48596	-353.27539	-122.45992	1381.78101	-479.26892	-164.67073	1426.84973	-517.24658	-79.63001	1416.44861	-544.03845	123.47933	1032.97449	-169.37772	-25.79621	1018.70062	-49.68954	-66.21576	1024.34326	-51.84866	-172.46458	1033.18750	-172.81009	179.21326	694.96857	-191.43073	167.52875	654.95270	-223.36220	190.12947	658.35254	-165.91512	176.23047	623.26715	-192.57538	170.07390	518.14349	-124.30157	231.16628	379.14777	-99.46635	213.95906	333.15619	-127.72252	220.67673	342.03024	-67.51388	218.07466	300.95554	-90.59420	189.29240	72.50223	-82.01728	141.59694	33.51463	-41.90107	201.94138	31.15259	-237.98051	-221.23970	694.68597	-204.72949	-203.97600	642.79889	-222.89560	-237.58104	660.94531	-173.09354	-229.28809	624.53339	-198.02281	-215.48982	509.96100	-126.63174	-273.90152	316.76993	-86.52792	-261.01105	290.92661	-114.66222	-262.99484	277.01050	-56.07355	-269.28842	246.46709	-78.51187	-240.20189	75.90195	-95.41839	-195.97675	35.00625	-42.11407	-241.54553	32.02896	-241.44293	164.15291	895.56146	-175.03230	-213.12105	901.71008	-169.02505	17.65094	1022.13287	-49.76514	-131.32968	996.82916	-236.21574	90.28874	995.18079	-228.78900
2	0.00833	146.10081	1470.44324	-54.23569	-133.39786	1349.25098	27.78708	-196.81905	1480.73901	-57.76799	301.92596	1318.77161	-344.55792	73.97239	1379.84888	-478.54962	116.47265	1423.00635	-518.98584	31.88705	1425.67871	-548.45654	-357.76181	1347.32336	-353.14291	-122.73562	1381.59778	-479.23651	-164.72243	1426.63989	-517.20740	-79.75605	1416.22827	-544.05426	123.47944	1032.97876	-169.21983	-25.76490	1018.66394	-49.37944	-66.21091	1024.30750	-51.69162	-172.44862	1033.19409	-172.58014	179.23219	694.97870	-191.34415	167.51378	654.96735	-223.28928	190.12408	658.38568	-165.86130	176.20963	623.31134	-192.52388	170.08521	518.14795	-124.24123	231.15338	379.15253	-99.45435	213.94823	333.16382	-127.71551	220.65524	342.02911	-67.49450	218.05746	300.95993	-90.56567	189.29547	72.49187	-82.02053	141.60573	33.50888	-41.89883	201.92474	31.17529	-238.01537	-221.25839	694.72345	-204.61816	-203.99277	642.85773	-222.82869	-237.58247	660.95605	-172.96666	-229.30368	624.56110	-197.95499	-215.47987	509.97855	-126.61249	-273.90042	316.74966	-86.56393	-261.02039	290.91452	-114.67074	-262.98090	277.00461	-56.06338	-269.28494	246.46521	-78.51657	-240.17691	75.89874	-95.43026	-196.00002	35.01843	-42.12373	-241.56310	32.05972	-241.43689	164.15532	895.57916	-174.87129	-213.14905	901.73157	-168.85159	17.67010	1022.09503	-49.57509	-131.39760	996.86664	-236.03436	90.28967	995.22717	-228.63446
3	0.01667	146.12228	1470.49072	-54.24556	-133.39389	1349.41687	27.90805	-196.80833	1480.86011	-57.76361	301.86465	1318.60864	-344.53116	73.88129	1379.70508	-478.53049	116.38624	1422.78296	-519.04657	31.80403	1425.46960	-548.46753	-357.73419	1347.13757	-353.00320	-122.66891	1381.46741	-479.15503	-164.82433	1426.22925	-517.12762	-79.76540	1415.96619	-543.99030	123.46537	1032.99194	-169.01562	-25.76633	1018.60760	-48.97857	-66.22626	1024.27441	-51.50834	-172.47598	1033.19373	-172.32411	179.17856	695.00342	-191.25974	167.47678	654.98053	-223.22031	190.09874	658.39514	-165.80038	176.17943	623.34723	-192.47079	170.07512	518.16266	-124.20050	231.14806	379.15216	-99.39473	213.94176	333.17548	-127.66473	220.63582	342.03192	-67.44410	218.03384	300.96249	-90.54677	189.29845	72.48492	-82.02151	141.60393	33.52415	-41.88927	201.90829	31.17858	-238.01199	-221.28081	694.74469	-204.55060	-204.03857	642.89801	-222.74675	-237.61075	660.98102	-172.89134	-229.33273	624.60168	-197.87961	-215.48503	509.97122	-126.58523	-273.89957	316.73346	-86.56593	-261.00766	290.90384	-114.66357	-262.98163	277.00439	-56.06631	-269.28665	246.46541	-78.53296	-240.17987	75.89917	-95.40899	-195.97745	35.00524	-42.14371	-241.53403	32.04993	-241.45093	164.15201	895.59589	-174.68703	-213.16747	901.73749	-168.70975	17.66921	1022.05884	-49.31350	-131.41829	996.89221	-235.83238	90.30042	995.25146	-228.48720
4	0.02500	146.14255	1470.56030	-54.25135	-133.40176	1349.61426	28.02151	-196.81476	1480.97095	-57.73140	301.78848	1318.42285	-344.54813	73.78211	1379.50671	-478.52863	116.30682	1422.52222	-519.09027	31.74162	1425.23560	-548.49109	-357.72824	1346.92847	-352.87149	-122.83289	1381.21338	-479.11603	-164.95169	1425.98059	-517.12115	-79.78418	1415.72510	-543.95776	123.45894	1033.00757	-168.80560	-25.74392	1018.57672	-48.59906	-66.21085	1024.24280	-51.31807	-172.48564	1033.21387	-172.08931	179.16258	695.00360	-191.16327	167.45016	655.01056	-223.08488	190.08350	658.41571	-165.71445	176.15880	623.36292	-192.37921	170.03394	518.15106	-124.13928	231.15062	379.14789	-99.36058	213.93857	333.17081	-127.62131	220.63516	342.00864	-67.42191	218.03391	300.94849	-90.48892	189.29504	72.49201	-82.02053	141.60777	33.51580	-41.90640	201.90941	31.18915	-238.03177	-221.30630	694.76691	-204.45920	-204.08313	642.94757	-222.71217	-237.62897	660.97870	-172.72653	-229.34634	624.62860	-197.83337	-215.49712	509.97650	-126.57905	-273.90591	316.72699	-86.56757	-260.99426	290.88235	-114.67875	-262.98114	276.99658	-56.08136	-269.26523	246.45717	-78.52904	-240.17052	75.88164	-95.44292	-195.99086	35.01538	-42.11444	-241.54518	32.04184	-241.43095	164.16420	895.60547	-174.52548	-213.16898	901.75256	-168.57367	17.68293	1022.01929	-49.11568	-131.39230	996.90558	-235.67059	90.28934	995.27484	-228.32455
